<svg xmlns="http://www.w3.org/2000/svg" xmlns:xlink="http://www.w3.org/1999/xlink" width="1500" zoomAndPan="magnify" viewBox="0 0 1125 1124.99995" height="1500" preserveAspectRatio="xMidYMid meet" version="1.0"><defs><g/><clipPath id="id1"><path d="M 73 69 L 1072 69 L 1072 1094 L 73 1094 Z M 73 69 " clip-rule="nonzero"/></clipPath><clipPath id="id2"><path d="M -121.171875 397.367188 L 1049.675781 67.234375 L 1246.089844 763.824219 L 75.242188 1093.957031 Z M -121.171875 397.367188 " clip-rule="nonzero"/></clipPath><clipPath id="id3"><path d="M -121.171875 397.367188 L 1049.675781 67.234375 L 1246.089844 763.824219 L 75.242188 1093.957031 Z M -121.171875 397.367188 " clip-rule="nonzero"/></clipPath><clipPath id="id4"><path d="M 721.769531 67.214844 L 902.519531 67.214844 L 902.519531 247.964844 L 721.769531 247.964844 Z M 721.769531 67.214844 " clip-rule="nonzero"/></clipPath></defs><g clip-path="url(#id1)"><g clip-path="url(#id2)"><g clip-path="url(#id3)"><path fill="#f4ca27" d="M 75.058594 1093.304688 C 75.058594 1093.304688 19.703125 815.675781 535.164062 550.898438 C 1050.617188 286.105469 1043.675781 69.632812 1043.675781 69.632812 C 1043.675781 69.632812 1184.945312 269.671875 828 548.582031 C 471.050781 827.484375 157.179688 771.847656 75.058594 1093.304688 " fill-opacity="1" fill-rule="nonzero"/></g></g></g><g fill="#1b1a1a" fill-opacity="1"><g transform="translate(206.243063, 673.678019)"><g><path d="M 261.304688 -564.542969 L 12.097656 -564.542969 L 12.097656 -560.511719 C 45.164062 -556.476562 73.390625 -547.605469 73.390625 -518.574219 L 73.390625 -62.101562 C 73.390625 -33.066406 45.164062 -16.128906 12.097656 -4.03125 L 12.097656 0 L 245.171875 0 C 420.179688 0 562.929688 -105.648438 562.929688 -296.789062 C 562.929688 -466.152344 452.441406 -564.542969 261.304688 -564.542969 Z M 258.882812 -12.902344 C 211.300781 -12.902344 176.621094 -23.386719 147.585938 -38.710938 L 147.585938 -551.640625 L 229.042969 -551.640625 C 410.503906 -551.640625 482.28125 -425.019531 482.28125 -254.851562 C 482.28125 -67.746094 394.375 -12.902344 258.882812 -12.902344 Z M 258.882812 -12.902344 "/></g></g></g><g fill="#1b1a1a" fill-opacity="1"><g transform="translate(448.322632, 1059.192205)"><g><path d="M 460.070312 -111.632812 L 354.355469 -254.558594 C 459.222656 -279.085938 522.652344 -349.28125 522.652344 -438.082031 C 522.652344 -540.414062 435.542969 -592 303.613281 -592 L 12.6875 -592 L 12.6875 -587.773438 C 47.359375 -583.542969 76.960938 -574.242188 76.960938 -543.796875 L 76.960938 -48.207031 C 76.960938 -17.761719 47.359375 -8.457031 12.6875 -4.230469 L 12.6875 0 L 219.039062 0 L 219.039062 -4.230469 C 184.367188 -8.457031 154.765625 -17.761719 154.765625 -48.207031 L 154.765625 -244.410156 L 274.859375 -244.410156 L 441.464844 -14.378906 L 441.464844 0 L 586.082031 0 L 586.082031 -2.539062 C 542.105469 -24.527344 509.964844 -43.132812 460.070312 -111.632812 Z M 154.765625 -278.242188 L 154.765625 -576.777344 L 257.945312 -576.777344 C 421.167969 -576.777344 446.539062 -490.515625 446.539062 -407.636719 C 446.539062 -290.082031 397.488281 -259.636719 287.542969 -259.636719 C 241.027344 -259.636719 199.589844 -265.554688 154.765625 -278.242188 Z M 154.765625 -278.242188 "/></g></g></g><g clip-path="url(#id4)"><path fill="#f4ca27" d="M 902.503906 157.582031 C 834.726562 170.058594 824.613281 180.175781 812.136719 247.949219 C 799.660156 180.175781 789.542969 170.058594 721.769531 157.582031 C 789.542969 145.105469 799.660156 134.992188 812.136719 67.214844 C 824.613281 134.992188 834.726562 145.105469 902.503906 157.582031 Z M 902.503906 157.582031 " fill-opacity="1" fill-rule="nonzero"/></g></svg>